<svg>
    <symbol id="viber" width="16" height="16" viewBox="0 0 16 16" fill="none" xmlns="http://www.w3.org/2000/svg">
        <g></g>
    </symbol>
    <symbol id="fb" width="16" height="16" viewBox="0 0 16 16" fill="none" xmlns="http://www.w3.org/2000/svg">
        <g>
            <path d="M10.6646 2.65667H12.1253V0.112667C11.8733 0.078 11.0066 0 9.9973 0C7.8913 0 6.44863 1.32467 6.44863 3.75933V6H4.12463V8.844H6.44863V16H9.29797V8.84467H11.528L11.882 6.00067H9.2973V4.04133C9.29797 3.21933 9.5193 2.65667 10.6646 2.65667Z" fill="currentColor"/>
        </g>
    </symbol>
    <symbol id="youtube" width="16" height="16" viewBox="0 0 16 16" fill="none" xmlns="http://www.w3.org/2000/svg">
        <g>
            <path d="M15.7235 4.21778C15.5276 3.36687 14.8316 2.73909 13.9938 2.64545C12.0097 2.42396 10.0015 2.42281 8.00256 2.42396C6.00328 2.42281 3.99476 2.42396 2.01067 2.64545C1.17331 2.73909 0.477812 3.36687 0.28193 4.21778C0.00313807 5.42957 0 6.75235 0 7.99998C0 9.2476 0 10.5702 0.278792 11.7818C0.474343 12.6326 1.17 13.2604 2.00787 13.3542C3.99178 13.5758 6.00014 13.577 7.99942 13.5758C9.99903 13.577 12.0069 13.5758 13.9906 13.3542C14.828 13.2605 15.5242 12.6327 15.7201 11.7818C15.999 10.5701 16 9.24744 16 7.99998C16 6.75235 16.0023 5.42957 15.7235 4.21778ZM5.93524 10.4833C5.93524 8.71347 5.93524 6.9621 5.93524 5.19207C7.63095 6.07684 9.31543 6.95566 11.0219 7.84588C9.32071 8.72817 7.63541 9.60171 5.93524 10.4833Z" fill="currentColor"/>
        </g>
    </symbol>
    <symbol id="instagram" width="16" height="16" viewBox="0 0 16 16" fill="none" xmlns="http://www.w3.org/2000/svg">
        <g>
            <path d="M15.9844 4.70404C15.9469 3.8539 15.8094 3.26944 15.6125 2.76299C15.4093 2.22541 15.0967 1.74412 14.6872 1.34401C14.2871 0.937683 13.8027 0.621948 13.2713 0.421957C12.7619 0.22502 12.1805 0.0875415 11.3304 0.0500586C10.4739 0.00940124 10.202 0 8.0297 0C5.8574 0 5.58549 0.00940124 4.73218 0.0468842C3.88204 0.0843671 3.29757 0.221967 2.79125 0.418783C2.25355 0.621948 1.77225 0.934509 1.37215 1.34401C0.96582 1.74412 0.650207 2.22858 0.450094 2.75994C0.253157 3.26944 0.115679 3.85073 0.0781958 4.70087C0.0375384 5.55736 0.0281372 5.82926 0.0281372 8.00156C0.0281372 10.1739 0.0375384 10.4458 0.0750213 11.2991C0.112504 12.1492 0.250104 12.7337 0.447042 13.2401C0.650207 13.7777 0.96582 14.259 1.37215 14.6591C1.77225 15.0654 2.25672 15.3812 2.78807 15.5812C3.29757 15.7781 3.87886 15.9156 4.72913 15.9531C5.58232 15.9907 5.85435 16 8.02664 16C10.1989 16 10.4708 15.9907 11.3242 15.9531C12.1743 15.9156 12.7588 15.7781 13.2651 15.5812C14.3404 15.1654 15.1905 14.3153 15.6062 13.2401C15.8031 12.7306 15.9407 12.1492 15.9781 11.2991C16.0156 10.4458 16.025 10.1739 16.025 8.00156C16.025 5.82926 16.0219 5.55736 15.9844 4.70404ZM14.5435 11.2366C14.5091 12.018 14.3779 12.4399 14.2685 12.7212C13.9996 13.4183 13.4464 13.9715 12.7494 14.2403C12.4681 14.3497 12.0431 14.481 11.2647 14.5153C10.4208 14.5529 10.1677 14.5622 8.03287 14.5622C5.89806 14.5622 5.64178 14.5529 4.80092 14.5153C4.01952 14.481 3.59756 14.3497 3.31625 14.2403C2.96938 14.1121 2.65365 13.909 2.39737 13.6433C2.1317 13.3838 1.92853 13.0713 1.80033 12.7244C1.69094 12.4431 1.55969 12.018 1.52538 11.2397C1.48777 10.3958 1.47849 10.1426 1.47849 8.00779C1.47849 5.87297 1.48777 5.6167 1.52538 4.77596C1.55969 3.99455 1.69094 3.5726 1.80033 3.29129C1.92853 2.9443 2.1317 2.62869 2.40055 2.37229C2.65988 2.10661 2.97244 1.90345 3.31943 1.77537C3.60073 1.66597 4.02586 1.53472 4.80409 1.50029C5.64801 1.46281 5.90123 1.45341 8.03592 1.45341C10.1739 1.45341 10.427 1.46281 11.2679 1.50029C12.0493 1.53472 12.4712 1.66597 12.7525 1.77537C13.0994 1.90345 13.4151 2.10661 13.6714 2.37229C13.9371 2.63174 14.1403 2.9443 14.2685 3.29129C14.3779 3.5726 14.5091 3.99761 14.5435 4.77596C14.581 5.61987 14.5904 5.87297 14.5904 8.00779C14.5904 10.1426 14.581 10.3927 14.5435 11.2366Z" fill="currentColor"/>
            <path d="M8.02955 3.89136C5.76043 3.89136 3.91937 5.73229 3.91937 8.00153C3.91937 10.2708 5.76043 12.1117 8.02955 12.1117C10.2988 12.1117 12.1397 10.2708 12.1397 8.00153C12.1397 5.73229 10.2988 3.89136 8.02955 3.89136ZM8.02955 10.6677C6.55746 10.6677 5.36338 9.47375 5.36338 8.00153C5.36338 6.52932 6.55746 5.33536 8.02955 5.33536C9.50176 5.33536 10.6957 6.52932 10.6957 8.00153C10.6957 9.47375 9.50176 10.6677 8.02955 10.6677Z" fill="currentColor"/>
            <path d="M13.2622 3.72883C13.2622 4.25871 12.8325 4.68836 12.3025 4.68836C11.7726 4.68836 11.343 4.25871 11.343 3.72883C11.343 3.19881 11.7726 2.76929 12.3025 2.76929C12.8325 2.76929 13.2622 3.19881 13.2622 3.72883Z" fill="currentColor"/>
        </g>
    </symbol>
    <symbol id="telegram" width="16" height="16" viewBox="0 0 16 16" fill="none" xmlns="http://www.w3.org/2000/svg">
        <g>
            <path d="M6.27797 10.1206L6.0133 13.8433C6.39197 13.8433 6.55597 13.6806 6.75263 13.4853L8.52797 11.7886L12.2066 14.4826C12.8813 14.8586 13.3566 14.6606 13.5386 13.8619L15.9533 2.54728L15.954 2.54661C16.168 1.54928 15.5933 1.15928 14.936 1.40394L0.742633 6.83795C-0.226034 7.21395 -0.211367 7.75395 0.577966 7.99861L4.20663 9.12728L12.6353 3.85328C13.032 3.59061 13.3926 3.73595 13.096 3.99861L6.27797 10.1206Z" fill="currentColor"/>
        </g>
    </symbol>
    <symbol id="sound" width="32" height="32" viewBox="0 0 32 32" fill="none" xmlns="http://www.w3.org/2000/svg">
        <g>
            <circle cx="16" cy="16" r="15.5" stroke="currentColor"/>
            <g clip-path="url(#clip0)">
                <path d="M20.064 17.9033C20.4991 17.1752 20.7878 16.2544 20.8438 15.3432C20.8793 14.7584 20.749 14.1445 20.4668 13.5672C20.0242 12.6604 19.2638 12.151 18.5292 11.6588C17.981 11.2915 17.463 10.9447 17.0968 10.4493L17.0311 10.3609C16.8146 10.0702 16.5702 9.74058 16.5314 9.46379C16.4926 9.18377 16.2384 8.98452 15.9606 9.00067C15.6784 9.02006 15.4597 9.25377 15.4597 9.53703V19.1333C15.0085 18.8597 14.4527 18.6917 13.8442 18.6917C12.3601 18.6917 11.1517 19.6578 11.1517 20.8457C11.1517 22.0337 12.3601 22.9998 13.8442 22.9998C15.3284 22.9998 16.5368 22.0337 16.5368 20.8457V14.5689C17.3456 14.878 18.6693 15.6653 19.0333 17.5037C18.9654 17.6039 18.9008 17.7116 18.8254 17.7978C18.6283 18.0207 18.6499 18.361 18.8739 18.5571C19.0958 18.7552 19.4361 18.7315 19.6332 18.5086C19.7775 18.3449 19.9057 18.1532 20.0285 17.9529C20.0414 17.9378 20.0533 17.9216 20.064 17.9033Z" fill="currentColor"/>
                <line x1="8.76471" y1="19.5588" x2="23.7647" y2="11.5588" stroke="currentColor"/>
            </g>
            <defs>
                <clipPath id="clip0">
                    <rect width="14" height="14" fill="currentColor" transform="translate(9 9)"/>
                </clipPath>
            </defs>
        </g>
    </symbol>
    <symbol id="video" width="141" height="141" viewBox="0 0 141 141" fill="none" xmlns="http://www.w3.org/2000/svg">
        <g>
            <circle cx="68.5" cy="72.5" r="68" stroke="currentColor"/>
            <path d="M116.937 120.937C126.517 111.357 133.041 99.1514 135.684 85.8637C138.327 72.576 136.97 58.8029 131.786 46.2862C126.601 33.7694 117.821 23.0712 106.557 15.5443C95.2918 8.01746 82.048 4 68.5 4" stroke="currentColor" stroke-width="7"/>
            <path d="M87 70L60.75 84.7224L60.75 55.2776L87 70Z" fill="currentColor"/>
        </g>
    </symbol>
    <symbol id="sun" width="19" height="19" viewBox="0 0 19 19" fill="none" xmlns="http://www.w3.org/2000/svg">
        <g>
            <path d="M9.49963 3.93359C6.4305 3.93359 3.93323 6.43087 3.93323 9.5C3.93323 12.5691 6.4305 15.0664 9.49963 15.0664C12.5688 15.0664 15.066 12.5691 15.066 9.5C15.066 6.43087 12.5688 3.93359 9.49963 3.93359Z" fill="currentColor"/>
            <path d="M15.2778 12.8398C14.6989 13.8529 13.8417 14.699 12.8286 15.2891L16.1796 16.1908L15.2778 12.8398Z" fill="currentColor"/>
            <path d="M9.49957 0L7.78516 3.05406C8.33066 2.89824 8.9095 2.82031 9.49957 2.82031C10.0896 2.82031 10.6685 2.89824 11.214 3.05406L9.49957 0Z" fill="currentColor"/>
            <path d="M2.81995 2.82031L3.7217 6.16016C4.30065 5.14703 5.13561 4.31207 6.14866 3.72207L2.81995 2.82031Z" fill="currentColor"/>
            <path d="M3.05371 7.77441L0.0107422 9.5L3.05371 11.2256C2.89785 10.6801 2.81989 10.1012 2.81989 9.5C2.81989 8.89879 2.89781 8.31992 3.05371 7.77441Z" fill="currentColor"/>
            <path d="M3.7217 12.8398L2.81995 16.1908L6.17092 15.2891C5.15784 14.699 4.30065 13.8529 3.7217 12.8398Z" fill="currentColor"/>
            <path d="M9.49991 16.1797C8.89877 16.1797 8.31983 16.1018 7.76318 15.9459L9.49991 19.0001L11.2366 15.9459C10.68 16.1018 10.101 16.1797 9.49991 16.1797Z" fill="currentColor"/>
            <path d="M12.8466 3.72779C13.8537 4.31393 14.693 5.1539 15.2777 6.16202L16.1842 2.82202L12.8466 3.72779Z" fill="currentColor"/>
            <path d="M18.989 9.50532L15.9479 7.78381C16.0941 8.33251 16.1796 8.90574 16.1796 9.4999C16.1796 10.0987 16.093 10.6764 15.9445 11.2289L18.989 9.50532Z" fill="currentColor"/>
        </g>
    </symbol>
    <symbol id="switch" width="57" height="24" viewBox="0 0 57 24" fill="none" xmlns="http://www.w3.org/2000/svg">
        <g>
            <rect x="0.5" y="0.5" width="56" height="23" rx="11.5" stroke="currentColor"/>
            <circle cx="45" cy="12" r="8" fill="currentColor"/>
        </g>
    </symbol>
    <symbol id="moon" width="17" height="17" viewBox="0 0 17 17" fill="none" xmlns="http://www.w3.org/2000/svg">
        <g>
            <path d="M8.95613 16.9994C12.2084 17.0337 15.1792 15.1596 16.5491 12.2099C15.6869 12.5861 14.7532 12.7703 13.8128 12.7498C10.1264 12.7457 7.13903 9.7583 7.13488 6.07193C7.17178 3.57839 8.54765 1.29753 10.736 0.101599C10.1458 0.0264547 9.55105 -0.0071898 8.95613 0.00111016C4.26206 0.00111016 0.45697 3.80634 0.45697 8.50026C0.45697 13.1943 4.26206 16.9994 8.95613 16.9994Z" fill="currentColor"/>
        </g>
    </symbol>
    <symbol id="switch" width="16" height="16" viewBox="0 0 16 16" fill="none" xmlns="http://www.w3.org/2000/svg">
        <g></g>
    </symbol>
    <symbol id="switch" width="16" height="16" viewBox="0 0 16 16" fill="none" xmlns="http://www.w3.org/2000/svg">
        <g></g>
    </symbol>
</svg>
